<svg width="16" height="16" viewBox="0 0 16 16" fill="none" xmlns="http://www.w3.org/2000/svg">
<path fill-rule="evenodd" clip-rule="evenodd" d="M1.40039 0C0.848106 0 0.400391 0.447715 0.400391 1V15C0.400391 15.5523 0.848105 16 1.40039 16H4.20039C4.75267 16 5.20039 15.5523 5.20039 15V1C5.20039 0.447715 4.75267 0 4.20039 0H1.40039ZM11.8004 0C11.2481 0 10.8004 0.447715 10.8004 1V15C10.8004 15.5523 11.2481 16 11.8004 16H14.6004C15.1527 16 15.6004 15.5523 15.6004 15V1C15.6004 0.447715 15.1527 0 14.6004 0H11.8004Z" fill="white"/>
</svg>
